<svg width="20" height="20" viewBox="0 0 20 20" fill="none" xmlns="http://www.w3.org/2000/svg">
<path d="M9.99999 20C4.48597 20 0 15.514 0 10C0 4.48598 4.48597 0 9.99999 0C15.514 0 20 4.48598 20 10C20 15.514 15.514 20 9.99999 20Z" fill="#EFB832"/>
<g opacity="0.2">
<path d="M12.9632 10.8793C12.8601 10.578 12.6934 10.3243 12.4637 10.1181C12.281 9.93535 12.0627 9.79277 11.809 9.68965C11.5552 9.58656 11.2339 9.50688 10.8449 9.45129L10.7699 9.43992L9.83327 9.29664C9.65116 9.2732 9.49851 9.23305 9.37534 9.17746C9.32378 9.15469 9.27558 9.12926 9.23007 9.10184C9.16714 9.06367 9.11089 9.02148 9.06003 8.97527C8.97233 8.88824 8.9114 8.79316 8.87526 8.69008C8.8398 8.58699 8.82171 8.47984 8.82171 8.36871C8.82171 8.0748 8.92683 7.82309 9.13706 7.61285C9.16585 7.58406 9.19663 7.55727 9.23011 7.53316C9.43901 7.37582 9.73558 7.2975 10.1192 7.2975C10.3274 7.2975 10.5443 7.31625 10.7699 7.35441C10.8456 7.36715 10.9219 7.38188 10.9996 7.39859C11.3089 7.46621 11.5948 7.62688 11.8566 7.88063L12.9037 6.84492C12.5388 6.48809 12.1384 6.23434 11.7019 6.08371C11.4221 5.9873 11.1108 5.92102 10.7693 5.88687C10.5785 5.8668 10.3776 5.85742 10.1667 5.85742C9.82933 5.85742 9.51667 5.89156 9.23011 5.96051C9.12632 5.98527 9.02593 6.01406 8.92882 6.0482C8.56394 6.17477 8.25464 6.35148 8.00089 6.57711C7.74714 6.8034 7.5523 7.0732 7.41777 7.38652C7.28253 7.69984 7.21558 8.04734 7.21558 8.42828C7.21558 9.15 7.41777 9.7057 7.82214 10.094C8.01296 10.2768 8.23855 10.4254 8.50034 10.5405C8.70722 10.6309 8.94956 10.7032 9.23007 10.7561C9.30573 10.7709 9.38339 10.7843 9.4644 10.7963L10.476 10.9509C10.5898 10.9677 10.6876 10.9857 10.7699 11.0045C10.8429 11.0219 10.9038 11.0393 10.952 11.058C11.0551 11.0975 11.1502 11.1571 11.2379 11.2361C11.4119 11.4109 11.4996 11.6452 11.4996 11.9384C11.4996 12.2799 11.3724 12.5416 11.1187 12.7238C11.021 12.7947 10.9045 12.8516 10.7699 12.8945C10.5557 12.9634 10.2953 12.9975 9.98796 12.9975C9.72686 12.9975 9.47378 12.9741 9.23007 12.9272C9.11155 12.9045 8.99573 12.8763 8.88128 12.8429C8.53249 12.7398 8.22316 12.5537 7.95335 12.2839L6.88214 13.3544C7.29456 13.7755 7.75249 14.0667 8.25663 14.2294C8.55655 14.3265 8.88128 14.3941 9.23077 14.4329C9.46776 14.4597 9.71683 14.4731 9.97659 14.4731C10.2524 14.4731 10.5169 14.451 10.7699 14.4062C10.9239 14.3794 11.0739 14.3439 11.2198 14.3004C11.6048 14.1859 11.9375 14.0192 12.2194 13.8009C12.5013 13.5827 12.7215 13.3149 12.8802 12.9975C13.0389 12.6802 13.1179 12.3153 13.1179 11.9029C13.1178 11.522 13.0663 11.1812 12.9632 10.8793Z" fill="white"/>
<path d="M10.7699 5.9143V7.35438C10.5443 7.31621 10.3274 7.29746 10.1192 7.29746C9.73554 7.29746 9.43897 7.37578 9.23007 7.53313V5.9143C9.23007 5.49051 9.57686 5.14438 9.99999 5.14438C10.2116 5.14438 10.4044 5.23075 10.5436 5.37067C10.6775 5.50391 10.7626 5.68602 10.7692 5.88684C10.7699 5.89621 10.7699 5.90493 10.7699 5.9143Z" fill="white"/>
<path d="M10.7699 9.43992V11.0045C10.6876 10.9858 10.5898 10.9677 10.476 10.951L9.4644 10.7963C9.38339 10.7843 9.30573 10.7709 9.23007 10.7562V9.10184C9.27558 9.1293 9.32378 9.15473 9.37534 9.17746C9.49854 9.23305 9.65116 9.2732 9.83327 9.29664L10.7699 9.43992Z" fill="white"/>
<path d="M9.98796 12.9976C10.2953 12.9976 10.5557 12.9635 10.7699 12.8946V14.417C10.7699 14.8401 10.4238 15.1869 9.99999 15.1869C9.58222 15.1869 9.23878 14.8488 9.23073 14.433C9.23007 14.4277 9.23007 14.4223 9.23007 14.417V12.9273C9.47378 12.9742 9.72683 12.9976 9.98796 12.9976Z" fill="white"/>
</g>
<g opacity="0.5">
<path d="M10 18.4622C5.33394 18.4622 1.53781 14.6661 1.53781 9.99998C1.53781 5.33388 5.3339 1.53775 10 1.53775C14.6661 1.53775 18.4622 5.33384 18.4622 9.99998C18.4622 14.6661 14.6661 18.4622 10 18.4622ZM10 3.69545C6.52371 3.69545 3.6955 6.52365 3.6955 9.99998C3.6955 13.4763 6.52371 16.3045 10 16.3045C13.4764 16.3045 16.3046 13.4763 16.3046 9.99998C16.3046 6.52365 13.4763 3.69545 10 3.69545Z" fill="#AE8132"/>
</g>
<path d="M7.18749 3.21347C7.20538 3.25894 7.22093 3.30027 7.23386 3.3373C7.2469 3.37426 7.25636 3.40941 7.26218 3.44265C7.26804 3.47574 7.2696 3.50785 7.26675 3.53879C7.26405 3.56961 7.25538 3.60195 7.24081 3.63543C7.2214 3.68011 7.1946 3.71918 7.16046 3.75269C7.12632 3.78605 7.08155 3.81375 7.02632 3.83543C6.9712 3.85711 6.91944 3.86742 6.87116 3.86633C6.82288 3.86523 6.77644 3.85511 6.73163 3.83562C6.69823 3.82093 6.66995 3.80332 6.64687 3.78254C6.6237 3.76187 6.60316 3.73718 6.58546 3.70871C6.56745 3.68023 6.55077 3.64804 6.53507 3.61211C6.51925 3.57601 6.50253 3.53535 6.48464 3.48988C6.46683 3.44449 6.4514 3.40328 6.43843 3.36621C6.4253 3.3291 6.41569 3.2941 6.40933 3.26105C6.40308 3.2282 6.4012 3.19617 6.40409 3.16523C6.40679 3.13433 6.41554 3.10207 6.43003 3.06859C6.44952 3.0239 6.47648 2.98476 6.51116 2.95105C6.54573 2.91742 6.59062 2.8898 6.64593 2.86812C6.70116 2.84633 6.75269 2.83613 6.8005 2.83742C6.84819 2.83863 6.89456 2.84894 6.93925 2.86832C6.97273 2.88289 7.00101 2.9007 7.02409 2.9214C7.04718 2.94218 7.06776 2.96676 7.0862 2.995C7.10452 3.02328 7.12155 3.05547 7.13726 3.09133C7.15288 3.12734 7.1698 3.16812 7.18749 3.21347ZM7.00183 3.28648C6.98394 3.24109 6.96823 3.20383 6.9548 3.17472C6.94124 3.14562 6.92882 3.12199 6.91753 3.10375C6.90624 3.08551 6.89542 3.07152 6.88487 3.06195C6.87433 3.05207 6.86273 3.04402 6.84999 3.03777C6.83066 3.02781 6.80909 3.0223 6.78542 3.0207C6.76167 3.01918 6.73694 3.02359 6.71112 3.03383C6.68534 3.04386 6.66405 3.05769 6.64776 3.07484C6.6314 3.09219 6.61901 3.11101 6.61077 3.13176C6.60577 3.14515 6.60265 3.15898 6.60167 3.17324C6.60058 3.1875 6.6021 3.20515 6.60624 3.22621C6.61046 3.24722 6.61773 3.27289 6.62808 3.30328C6.63855 3.33367 6.65265 3.3716 6.67058 3.41703C6.68839 3.46242 6.70382 3.4998 6.71694 3.52902C6.72999 3.55843 6.74214 3.58191 6.75323 3.59972C6.76433 3.61754 6.77507 3.63125 6.7855 3.64093C6.79612 3.65078 6.80773 3.65867 6.82058 3.66508C6.84065 3.67449 6.86276 3.68031 6.88675 3.68218C6.91062 3.68414 6.93542 3.68 6.96136 3.66976C6.9871 3.65961 7.00815 3.64582 7.02433 3.62804C7.04042 3.61035 7.05226 3.59129 7.05964 3.57097C7.06472 3.55765 7.06776 3.54383 7.06886 3.52957C7.06987 3.51523 7.06851 3.49781 7.06448 3.47722C7.06054 3.45672 7.05358 3.43125 7.04362 3.40062C7.03355 3.37004 7.01968 3.33191 7.00183 3.28648Z" fill="#EFB832"/>
<path d="M8.12792 3.47659L7.57038 2.97991L7.73773 3.58463L7.54546 3.63788L7.27265 2.65256L7.44433 2.6051L8.00148 3.10049L7.83444 2.49713L8.02691 2.44397L8.2996 3.42913L8.12792 3.47659Z" fill="#EFB832"/>
<path d="M8.5048 3.39675L8.35781 2.38504L9.02417 2.28824L9.04976 2.46445L8.58093 2.53257L8.61531 2.76976L9.01468 2.71187L9.04015 2.88789L8.64097 2.94593L8.67671 3.19183L9.14562 3.12371L9.17128 3.2998L8.5048 3.39675Z" fill="#EFB832"/>
<path d="M10.3961 2.56656C10.3959 2.60972 10.3881 2.65054 10.3726 2.68925C10.3571 2.72804 10.335 2.76187 10.3062 2.79097C10.2774 2.82003 10.2418 2.84292 10.1996 2.85945C10.1574 2.87617 10.1101 2.88433 10.0575 2.88414L9.8607 2.88328L9.85921 3.26812L9.65968 3.26742L9.66363 2.245L10.0599 2.24656C10.1125 2.24675 10.16 2.25531 10.2021 2.27222C10.2441 2.28906 10.2794 2.3123 10.308 2.34152C10.3366 2.37089 10.3585 2.40496 10.3736 2.44375C10.3888 2.48269 10.3962 2.52339 10.3961 2.56656ZM10.1965 2.56585C10.1967 2.52375 10.1837 2.48968 10.1575 2.46378C10.1312 2.43781 10.0951 2.42464 10.0492 2.4246L9.86249 2.42382L9.86148 2.70371L10.0482 2.70449C10.094 2.70464 10.1303 2.69214 10.1566 2.66691C10.183 2.64167 10.1964 2.60796 10.1965 2.56585Z" fill="#EFB832"/>
<path d="M10.5345 3.28306L10.6491 2.26724L11.3182 2.34263L11.2983 2.51955L10.8274 2.46654L10.8006 2.70482L11.2015 2.74994L11.1815 2.92693L10.7806 2.8817L10.7528 3.12853L11.2236 3.18154L11.2037 3.35853L10.5345 3.28306Z" fill="#EFB832"/>
<path d="M11.9578 3.52139L11.705 2.81869L11.5634 3.4301L11.3689 3.38502L11.5996 2.38901L11.773 2.4292L12.0263 3.13049L12.1675 2.52061L12.362 2.56569L12.1314 3.56162L11.9578 3.52139Z" fill="#EFB832"/>
<path d="M12.8989 3.82928L12.7348 3.10088L12.5187 3.68994L12.3313 3.62112L12.6834 2.66147L12.8505 2.72284L13.015 3.44998L13.2307 2.86217L13.418 2.931L13.0659 3.89084L12.8989 3.82928Z" fill="#EFB832"/>
<path d="M13.7942 3.77898L13.6069 4.15398L13.4296 4.06554L13.6169 3.69038L13.6114 3.0137L13.8053 3.1105L13.7922 3.56448L14.1446 3.2798L14.3385 3.37659L13.7942 3.77898Z" fill="#EFB832"/>
<path d="M12.9375 16.9003C12.9196 16.8548 12.9041 16.8135 12.8912 16.7765C12.8781 16.7396 12.8687 16.7044 12.8628 16.6712C12.857 16.6381 12.8554 16.606 12.8583 16.5751C12.861 16.5442 12.8696 16.5119 12.8842 16.4784C12.9036 16.4337 12.9304 16.3946 12.9646 16.3611C12.9987 16.3278 13.0435 16.3001 13.0987 16.2784C13.1539 16.2567 13.2056 16.2464 13.2539 16.2475C13.3022 16.2486 13.3486 16.2587 13.3934 16.2782C13.4268 16.2929 13.4551 16.3105 13.4782 16.3313C13.5013 16.3519 13.5218 16.3766 13.5396 16.4051C13.5576 16.4336 13.5742 16.4658 13.5899 16.5017C13.6058 16.5378 13.6224 16.5785 13.6404 16.6239C13.6582 16.6693 13.6736 16.7105 13.6866 16.7476C13.6997 16.7847 13.7093 16.8197 13.7157 16.8527C13.7219 16.8856 13.7238 16.9176 13.7209 16.9485C13.7182 16.9795 13.7095 17.0117 13.695 17.0452C13.6755 17.0899 13.6485 17.129 13.6139 17.1628C13.5793 17.1964 13.5344 17.224 13.4791 17.2457C13.4239 17.2675 13.3723 17.2777 13.3245 17.2764C13.2768 17.2752 13.2305 17.2649 13.1858 17.2455C13.1523 17.2309 13.124 17.2131 13.1009 17.1924C13.0778 17.1716 13.0572 17.147 13.0388 17.1188C13.0205 17.0905 13.0035 17.0583 12.9878 17.0224C12.9721 16.9864 12.9553 16.9456 12.9375 16.9003ZM13.1232 16.8273C13.1411 16.8727 13.1568 16.9099 13.1702 16.939C13.1838 16.9681 13.1962 16.9918 13.2075 17.01C13.2188 17.0283 13.2296 17.0423 13.2401 17.0519C13.2507 17.0617 13.2623 17.0698 13.275 17.076C13.2944 17.086 13.3159 17.0915 13.3396 17.0931C13.3633 17.0946 13.3881 17.0903 13.4139 17.08C13.4396 17.0699 13.4609 17.0561 13.4773 17.039C13.4937 17.0216 13.506 17.0028 13.5142 16.9821C13.5192 16.9687 13.5224 16.9548 13.5234 16.9406C13.5245 16.9263 13.523 16.9087 13.5188 16.8876C13.5146 16.8666 13.5073 16.841 13.497 16.8106C13.4865 16.7802 13.4724 16.7422 13.4545 16.6968C13.4367 16.6514 13.4212 16.614 13.4081 16.5848C13.3951 16.5554 13.3829 16.532 13.3718 16.5141C13.3607 16.4963 13.35 16.4826 13.3396 16.4729C13.3289 16.4631 13.3173 16.4552 13.3045 16.4488C13.2844 16.4394 13.2623 16.4335 13.2383 16.4317C13.2144 16.4297 13.1896 16.4339 13.1637 16.4441C13.138 16.4542 13.1169 16.468 13.1007 16.4858C13.0846 16.5035 13.0728 16.5226 13.0654 16.5429C13.0603 16.5562 13.0573 16.57 13.0562 16.5843C13.0551 16.5986 13.0565 16.616 13.0605 16.6366C13.0645 16.6571 13.0714 16.6826 13.0814 16.7132C13.0915 16.7437 13.1054 16.7819 13.1232 16.8273Z" fill="#EFB832"/>
<path d="M11.9971 16.6372L12.5546 17.1339L12.3873 16.5291L12.5796 16.4759L12.8524 17.4612L12.6807 17.5087L12.1235 17.0133L12.2906 17.6166L12.0981 17.6698L11.8254 16.6846L11.9971 16.6372Z" fill="#EFB832"/>
<path d="M11.6203 16.717L11.7673 17.7287L11.1009 17.8255L11.0753 17.6493L11.5441 17.5812L11.5098 17.344L11.1104 17.4019L11.0849 17.2258L11.4841 17.1678L11.4483 16.9219L10.9794 16.99L10.9538 16.8139L11.6203 16.717Z" fill="#EFB832"/>
<path d="M9.72889 17.5472C9.72909 17.504 9.7369 17.4632 9.75241 17.4245C9.76788 17.3857 9.78999 17.3519 9.81882 17.3228C9.84764 17.2938 9.88323 17.2709 9.92538 17.2543C9.9676 17.2376 10.0149 17.2295 10.0675 17.2297L10.2643 17.2305L10.2658 16.8457L10.4653 16.8464L10.4614 17.8688L10.0651 17.8672C10.0124 17.867 9.96503 17.8585 9.92292 17.8416C9.88089 17.8247 9.84561 17.8015 9.81698 17.7723C9.78843 17.7429 9.76647 17.7088 9.75135 17.67C9.73624 17.6311 9.72882 17.5904 9.72889 17.5472ZM9.92854 17.5479C9.92831 17.59 9.94139 17.6241 9.9676 17.65C9.99382 17.6759 10.0299 17.6891 10.0758 17.6891L10.2626 17.6899L10.2636 17.41L10.0769 17.4093C10.0311 17.4091 9.99479 17.4216 9.96843 17.4468C9.94202 17.4721 9.92866 17.5058 9.92854 17.5479Z" fill="#EFB832"/>
<path d="M9.59058 16.8307L9.47597 17.8465L8.80687 17.7711L8.82679 17.5942L9.29765 17.6472L9.32444 17.409L8.92351 17.3638L8.94351 17.1869L9.34444 17.2321L9.37226 16.9852L8.9014 16.9322L8.92132 16.7552L9.59058 16.8307Z" fill="#EFB832"/>
<path d="M8.16729 16.5924L8.42011 17.2951L8.56167 16.6836L8.75616 16.7287L8.52546 17.7247L8.35206 17.6845L8.09878 16.9833L7.95757 17.5931L7.76308 17.5481L7.9937 16.5521L8.16729 16.5924Z" fill="#EFB832"/>
<path d="M7.2262 16.2845L7.39026 17.0129L7.60632 16.4238L7.79374 16.4926L7.44159 17.4523L7.27452 17.3909L7.10995 16.6637L6.89429 17.2515L6.70694 17.1827L7.05909 16.2229L7.2262 16.2845Z" fill="#EFB832"/>
<path d="M6.33078 16.3347L6.51808 15.9597L6.69538 16.0482L6.50808 16.4233L6.51359 17.1L6.31968 17.0032L6.33285 16.5492L5.98042 16.8339L5.78652 16.7371L6.33078 16.3347Z" fill="#EFB832"/>
<path d="M12.9632 10.7137C12.8601 10.4124 12.6934 10.1587 12.4637 9.95245C12.281 9.76968 12.0627 9.6271 11.809 9.52398C11.5552 9.42089 11.2339 9.3412 10.8449 9.28562L10.7699 9.27421L9.83327 9.13093C9.65116 9.10749 9.49851 9.06734 9.37534 9.01175C9.32378 8.98898 9.27558 8.96355 9.23007 8.93613C9.16714 8.89796 9.11089 8.85577 9.06003 8.80956C8.97233 8.72253 8.9114 8.62745 8.87526 8.52437C8.8398 8.42128 8.82171 8.31413 8.82171 8.203C8.82171 7.90909 8.92683 7.65738 9.13706 7.44714C9.16585 7.41835 9.19663 7.39156 9.23011 7.36745C9.43901 7.21011 9.73558 7.13179 10.1192 7.13179C10.3274 7.13179 10.5443 7.15054 10.7699 7.1887C10.8456 7.20144 10.9219 7.21616 10.9996 7.23288C11.3089 7.3005 11.5948 7.46116 11.8566 7.71491L12.9037 6.67921C12.5388 6.32238 12.1384 6.06863 11.7019 5.918C11.4221 5.82159 11.1108 5.75531 10.7693 5.72117C10.5785 5.70109 10.3776 5.69171 10.1667 5.69171C9.82933 5.69171 9.51667 5.72585 9.23011 5.79484C9.12632 5.8196 9.02593 5.84839 8.92882 5.88253C8.56394 6.00906 8.25464 6.18581 8.00089 6.41144C7.74714 6.63773 7.5523 6.90753 7.41777 7.22085C7.28253 7.53417 7.21558 7.88167 7.21558 8.26261C7.21558 8.98433 7.41777 9.53999 7.82214 9.92831C8.01296 10.1111 8.23855 10.2597 8.50034 10.3749C8.70722 10.4653 8.94956 10.5376 9.23007 10.5905C9.30573 10.6052 9.38339 10.6186 9.4644 10.6306L10.476 10.7853C10.5898 10.802 10.6876 10.8201 10.7699 10.8388C10.8429 10.8562 10.9038 10.8736 10.952 10.8924C11.0551 10.9319 11.1502 10.9915 11.2379 11.0705C11.4119 11.2452 11.4996 11.4795 11.4996 11.7728C11.4996 12.1142 11.3724 12.376 11.1187 12.5581C11.021 12.6291 10.9045 12.686 10.7699 12.7288C10.5557 12.7977 10.2953 12.8319 9.98796 12.8319C9.72686 12.8319 9.47378 12.8084 9.23007 12.7616C9.11155 12.7388 8.99573 12.7107 8.88128 12.6772C8.53249 12.5741 8.22316 12.388 7.95335 12.1182L6.88214 13.1887C7.29456 13.6098 7.75249 13.901 8.25663 14.0637C8.55655 14.1608 8.88128 14.2284 9.23077 14.2672C9.46776 14.294 9.71683 14.3074 9.97659 14.3074C10.2524 14.3074 10.5169 14.2853 10.7699 14.2405C10.9239 14.2137 11.0739 14.1782 11.2198 14.1347C11.6048 14.0202 11.9375 13.8535 12.2194 13.6352C12.5013 13.417 12.7215 13.1492 12.8802 12.8318C13.0389 12.5145 13.1179 12.1496 13.1179 11.7372C13.1178 11.3564 13.0663 11.0156 12.9632 10.7137Z" fill="#CC9322"/>
<path d="M10.7699 5.74871V7.18879C10.5443 7.15063 10.3274 7.13188 10.1192 7.13188C9.73554 7.13188 9.43897 7.2102 9.23007 7.36754V5.74871C9.23007 5.32492 9.57686 4.97879 9.99999 4.97879C10.2116 4.97879 10.4044 5.06516 10.5436 5.20508C10.6775 5.33832 10.7626 5.52039 10.7692 5.72125C10.7699 5.73063 10.7699 5.73934 10.7699 5.74871Z" fill="#CC9322"/>
<path d="M10.7699 9.27427V10.8389C10.6876 10.8201 10.5898 10.802 10.476 10.7853L9.4644 10.6307C9.38339 10.6186 9.30573 10.6053 9.23007 10.5905V8.93619C9.27558 8.96365 9.32378 8.98908 9.37534 9.01181C9.49854 9.0674 9.65116 9.10755 9.83327 9.13099L10.7699 9.27427Z" fill="#CC9322"/>
<path d="M9.98796 12.832C10.2953 12.832 10.5557 12.7978 10.7699 12.7289V14.2513C10.7699 14.6744 10.4238 15.0212 9.99999 15.0212C9.58222 15.0212 9.23878 14.6831 9.23073 14.2674C9.23007 14.262 9.23007 14.2567 9.23007 14.2513V12.7617C9.47378 12.8085 9.72683 12.832 9.98796 12.832Z" fill="#CC9322"/>
<path d="M2.57668 10.3734C2.78292 10.3734 2.95011 10.2062 2.95011 9.99999C2.95011 9.79375 2.78292 9.62656 2.57668 9.62656C2.37043 9.62656 2.20324 9.79375 2.20324 9.99999C2.20324 10.2062 2.37043 10.3734 2.57668 10.3734Z" fill="#EFB832"/>
<path d="M17.3485 10.3734C17.5547 10.3734 17.7219 10.2062 17.7219 9.99999C17.7219 9.79375 17.5547 9.62656 17.3485 9.62656C17.1422 9.62656 16.975 9.79375 16.975 9.99999C16.975 10.2062 17.1422 10.3734 17.3485 10.3734Z" fill="#EFB832"/>
<path opacity="0.06" d="M10.0047 19.9906C12.5655 19.9906 15.1263 19.0159 17.0758 17.0664C20.9747 13.1674 20.9747 6.82324 17.0758 2.9243C15.1262 0.974727 12.5655 0 10.0047 0V19.9906Z" fill="#040000"/>
</svg>
