<svg width="30" height="30" viewBox="0 0 30 30" fill="none" xmlns="http://www.w3.org/2000/svg">
<path fill-rule="evenodd" clip-rule="evenodd" d="M25.5 16.4286H21C18.5145 16.4286 16.5 18.3472 16.5 20.7143V25C16.5 27.3672 18.5145 29.2857 21 29.2857H25.5C27.9855 29.2857 30 27.3672 30 25V20.7143C30 18.3472 27.9855 16.4286 25.5 16.4286ZM9 16.4286H4.5C2.0145 16.4286 0 18.3472 0 20.7143V25C0 27.3672 2.0145 29.2857 4.5 29.2857H9C11.4855 29.2857 13.5 27.3672 13.5 25V20.7143C13.5 18.3472 11.4855 16.4286 9 16.4286ZM25.5 0.714294H21C18.5145 0.714294 16.5 2.63287 16.5 5.00001V9.28572C16.5 11.6529 18.5145 13.5714 21 13.5714H25.5C27.9855 13.5714 30 11.6529 30 9.28572V5.00001C30 2.63287 27.9855 0.714294 25.5 0.714294ZM13.5 5.00001V9.28572C13.5 11.6529 11.4855 13.5714 9 13.5714H4.5C2.0145 13.5714 0 11.6529 0 9.28572V5.00001C0 2.63287 2.0145 0.714294 4.5 0.714294H9C11.4855 0.714294 13.5 2.63287 13.5 5.00001Z" fill="black"/>
</svg>
