<svg width="16" height="11" viewBox="0 0 16 11" fill="none" xmlns="http://www.w3.org/2000/svg">
<path d="M1.41667 1.125L1.6017 1.19005C2.52366 1.51419 2.98464 1.67627 3.24831 2.06211C3.51198 2.44796 3.51198 2.96048 3.51198 3.98551V5.91333C3.51198 7.99697 3.55677 8.68455 4.17047 9.33189C4.78417 9.97917 5.77191 9.97917 7.7474 9.97917H8.5M11.5036 9.97917C12.6093 9.97917 13.1622 9.97917 13.553 9.6607C13.9438 9.34223 14.0554 8.80078 14.2786 7.71781L14.6326 6.00028C14.8785 4.76845 15.0014 4.15254 14.6869 3.74377C14.3725 3.335 13.2981 3.335 12.1046 3.335H7.80832M3.51198 3.335H4.95834" stroke="#1C274C" stroke-linecap="round"/>
</svg>
