<svg width="31" height="30" viewBox="0 0 31 30" fill="none" xmlns="http://www.w3.org/2000/svg">
<g clip-path="url(#clip0_51_1187)">
<path d="M6.82865 24.0411H12.1156C12.1549 24.0411 12.1925 24.0567 12.2203 24.0844C12.248 24.1122 12.2636 24.1498 12.2636 24.189V26.8253H5.32043V24.1849C5.32151 24.1464 5.33756 24.1098 5.36519 24.083C5.39282 24.0561 5.42984 24.0411 5.46838 24.0411H6.82865Z" fill="#A8CBEB"/>
<path d="M15.1958 24.0411H20.9492C20.9885 24.0411 21.0261 24.0567 21.0539 24.0844C21.0816 24.1122 21.0972 24.1498 21.0972 24.189V26.8253H14.1643V24.1849C14.1643 24.1457 14.1799 24.1081 14.2076 24.0803C14.2354 24.0526 14.273 24.037 14.3123 24.037H15.1958V24.0411Z" fill="#A8CBEB"/>
<path d="M21.5369 16.0274L21.4095 16.1363C21.3561 16.1815 21.2965 16.2308 21.2369 16.2822L21.1033 13.0685C21.0847 12.6506 21.1847 12.236 21.3915 11.8724C21.5984 11.5089 21.9038 11.2112 22.2725 11.0137L22.7307 10.7671C22.7437 10.7579 22.7588 10.7523 22.7747 10.7509C22.7905 10.7496 22.8065 10.7525 22.8208 10.7595C22.8351 10.7664 22.8472 10.7771 22.856 10.7904C22.8647 10.8037 22.8697 10.819 22.8705 10.8349V11.9178C22.7996 12.105 22.7493 12.2992 22.7204 12.4973L21.5369 16.0274Z" fill="white"/>
<path d="M20.0492 17.2212L20.0883 17.2438L20.1314 17.2068C20.4417 16.9459 20.8753 16.5904 21.2349 16.2904C21.2944 16.237 21.354 16.1897 21.4075 16.1445L21.5369 16.0274L22.7225 12.489C22.7514 12.291 22.8017 12.0967 22.8725 11.9096C23.0602 11.3195 23.4176 10.7978 23.8999 10.4096C24.3479 10.089 25.1328 9.80959 25.3629 10.0664C25.3906 10.1038 25.4103 10.1464 25.4209 10.1916C25.4315 10.2368 25.4328 10.2837 25.4246 10.3295C25.0027 12.2062 24.5801 14.0842 24.1568 15.9637C23.6102 16.9911 22.9897 18.0637 22.2787 19.1774C21.4116 20.5397 19.6671 22.876 19.6568 22.876L19.6013 24.0411H15.1958L15.1342 22.8637C15.0602 21.8474 15.0918 20.8262 15.2287 19.8164L15.2986 19.3151C15.3815 18.6678 15.7131 18.0782 16.2232 17.6712L19.8623 14.774C19.868 14.7683 19.8758 14.7652 19.8838 14.7652C19.8919 14.7652 19.8996 14.7683 19.9054 14.774C20.1621 15.1099 20.316 15.513 20.3484 15.9346C20.3809 16.3561 20.2905 16.778 20.0883 17.1493L20.0492 17.2212Z" fill="white"/>
<path d="M5.32458 13.0685L5.19513 16.2863L5.02047 16.1425L4.89307 16.0274L3.70951 12.4952C3.67891 12.2982 3.62866 12.1048 3.55951 11.9178V10.839C3.56023 10.8232 3.56523 10.8078 3.57398 10.7945C3.58272 10.7812 3.59489 10.7705 3.6092 10.7636C3.62351 10.7566 3.63942 10.7537 3.65527 10.755C3.67112 10.7564 3.68631 10.762 3.69924 10.7712L4.15951 11.0178C4.52666 11.2158 4.83066 11.5131 5.0367 11.8757C5.24275 12.2384 5.34251 12.6518 5.32458 13.0685Z" fill="white"/>
<path d="M6.37869 17.2212L6.3417 17.1534C6.13925 16.7821 6.04896 16.36 6.08179 15.9383C6.11461 15.5167 6.26915 15.1136 6.52663 14.7781C6.52931 14.7754 6.53251 14.7732 6.53604 14.7717C6.53957 14.7702 6.54336 14.7695 6.54718 14.7695C6.55101 14.7695 6.5548 14.7702 6.55833 14.7717C6.56185 14.7732 6.56505 14.7754 6.56773 14.7781L10.2068 17.6712C10.7166 18.0785 11.0481 18.6679 11.1314 19.3151L11.2013 19.8267C11.3372 20.8359 11.3688 21.8563 11.2958 22.8719L11.2321 24.0411H6.82869L6.76705 22.8863C6.76705 22.8863 5.01636 20.548 4.14513 19.1836C3.43417 18.0699 2.81362 16.9932 2.2691 15.9699L1.00129 10.3356C0.992531 10.2893 0.993486 10.2416 1.0041 10.1956C1.01471 10.1496 1.03474 10.1063 1.06294 10.0685C1.2828 9.81165 2.078 10.0911 2.528 10.4116C3.00983 10.8004 3.36704 11.3219 3.5554 11.9116C3.62469 12.0993 3.67494 12.2934 3.7054 12.4911L4.89307 16.0274L5.02047 16.1363L5.19513 16.2801L6.2965 17.1986L6.3417 17.2356L6.37869 17.2212Z" fill="white"/>
<path d="M8.92458 9.09451C8.92458 9.92357 9.17043 10.734 9.63103 11.4233C10.0916 12.1127 10.7463 12.6499 11.5122 12.9672C12.2782 13.2845 13.121 13.3675 13.9341 13.2058C14.7473 13.044 15.4942 12.6448 16.0804 12.0586C16.6666 11.4723 17.0659 10.7254 17.2276 9.91229C17.3893 9.09916 17.3063 8.25634 16.9891 7.49039C16.6718 6.72444 16.1345 6.06977 15.4452 5.60918C14.7559 5.14858 13.9454 4.90273 13.1164 4.90273C12.0046 4.90273 10.9384 5.34437 10.1523 6.13048C9.36622 6.91659 8.92458 7.98278 8.92458 9.09451ZM13.1164 14.7657C11.9947 14.7657 10.8982 14.4331 9.9656 13.81C9.03297 13.1868 8.30607 12.3011 7.87683 11.2648C7.44759 10.2285 7.33528 9.08822 7.5541 7.98811C7.77293 6.888 8.31306 5.87748 9.1062 5.08435C9.89933 4.29121 10.9099 3.75108 12.01 3.53225C13.1101 3.31343 14.2504 3.42574 15.2867 3.85498C16.3229 4.28422 17.2087 5.01112 17.8318 5.94375C18.455 6.87638 18.7876 7.97285 18.7876 9.09451C18.7876 10.5986 18.1901 12.0411 17.1265 13.1047C16.063 14.1682 14.6205 14.7657 13.1164 14.7657Z" fill="white"/>
<path d="M13.1163 13.1219C15.3406 13.1219 17.1437 11.3188 17.1437 9.09452C17.1437 6.87025 15.3406 5.06712 13.1163 5.06712C10.8921 5.06712 9.08893 6.87025 9.08893 9.09452C9.08893 11.3188 10.8921 13.1219 13.1163 13.1219Z" fill="#ED9180"/>
<path d="M17.8239 19.0479L19.9835 17.326L20.0492 17.2192L20.0862 17.1514C20.2884 16.7801 20.3788 16.3582 20.3463 15.9366C20.3139 15.5151 20.16 15.112 19.9033 14.776C19.8976 14.7704 19.8898 14.7672 19.8817 14.7672C19.8737 14.7672 19.8659 14.7704 19.8602 14.776L16.2232 17.6712C15.7131 18.0782 15.3814 18.6678 15.2985 19.3151L15.2287 19.8164C15.0919 20.8255 15.0603 21.846 15.1341 22.8616L15.1958 24.039V24.076" stroke="#515F76" stroke-width="0.986301" stroke-miterlimit="10"/>
<path d="M20.0903 17.2438L20.1334 17.2068C20.4437 16.9459 20.8773 16.5904 21.2369 16.2904C21.2965 16.237 21.3561 16.1897 21.4095 16.1445L21.5369 16.0274L22.7225 12.489C22.7513 12.291 22.8016 12.0967 22.8725 11.9096C23.0602 11.3195 23.4175 10.7978 23.8999 10.4096C24.3478 10.089 25.1328 9.80959 25.3629 10.0664C25.3905 10.1038 25.4103 10.1464 25.4209 10.1916C25.4315 10.2368 25.4327 10.2837 25.4245 10.3295C25.0026 12.2062 24.58 14.0842 24.1567 15.9637C23.6102 16.9911 22.9896 18.0637 22.2787 19.1774C21.4752 20.437 19.9239 22.5247 19.6876 22.839C19.6678 22.8652 19.6564 22.8967 19.6547 22.9295L19.6013 24.0411" stroke="#515F76" stroke-width="0.986301" stroke-miterlimit="10"/>
<path d="M21.2328 16.2863L21.1033 13.0685C21.0847 12.6506 21.1847 12.236 21.3915 11.8724C21.5984 11.5089 21.9038 11.2112 22.2725 11.0137L22.7307 10.7671C22.7437 10.7579 22.7588 10.7523 22.7747 10.7509C22.7905 10.7496 22.8065 10.7525 22.8208 10.7595C22.8351 10.7664 22.8472 10.7771 22.856 10.7904C22.8647 10.8037 22.8697 10.819 22.8705 10.8349V11.9178" stroke="#515F76" stroke-width="0.986301" stroke-miterlimit="10"/>
<path d="M8.60403 19.0479L6.4465 17.326L6.37869 17.2192L6.3417 17.1514C6.13925 16.78 6.04896 16.3579 6.08179 15.9363C6.11461 15.5146 6.26915 15.1116 6.52663 14.776C6.52931 14.7733 6.53251 14.7711 6.53604 14.7696C6.53957 14.7682 6.54336 14.7674 6.54718 14.7674C6.55101 14.7674 6.5548 14.7682 6.55833 14.7696C6.56186 14.7711 6.56505 14.7733 6.56773 14.776L10.2068 17.6712C10.7166 18.0785 11.0481 18.6679 11.1314 19.3151L11.2013 19.8267C11.3372 20.8359 11.3689 21.8563 11.2958 22.8719L11.2321 24.0411V24.0781" stroke="#515F76" stroke-width="0.986301" stroke-miterlimit="10"/>
<path d="M6.33965 17.2438L6.29445 17.2069L5.19308 16.2884L5.01842 16.1445L4.89308 16.0274L3.70952 12.4952C3.67892 12.2982 3.62867 12.1048 3.55952 11.9178C3.37115 11.3281 3.01394 10.8065 2.53212 10.4178C2.07801 10.0973 1.2828 9.81781 1.06294 10.0685C1.0353 10.1058 1.01557 10.1484 1.00497 10.1936C0.994371 10.2389 0.993121 10.2858 1.0013 10.3315L2.27116 15.9658C2.81568 16.9932 3.43623 18.0658 4.14719 19.1795C4.95061 20.439 6.50198 22.5267 6.73828 22.8411C6.75801 22.8673 6.76946 22.8988 6.77116 22.9315L6.82869 24.0411V24.0781" stroke="#515F76" stroke-width="0.986301" stroke-miterlimit="10"/>
<path d="M5.19511 16.2863L5.32456 13.0685C5.34308 12.6509 5.24339 12.2365 5.03692 11.873C4.83046 11.5095 4.52562 11.2117 4.15743 11.0137L3.69716 10.7671C3.68423 10.7579 3.66904 10.7523 3.6532 10.7509C3.63735 10.7496 3.62143 10.7525 3.60712 10.7595C3.59281 10.7664 3.58065 10.7771 3.5719 10.7904C3.56315 10.8037 3.55816 10.819 3.55743 10.8349V11.9178" stroke="#515F76" stroke-width="0.986301" stroke-miterlimit="10"/>
<path d="M13.1164 14.7658C16.2485 14.7658 18.7876 12.2267 18.7876 9.09453C18.7876 5.96239 16.2485 3.42329 13.1164 3.42329C9.98423 3.42329 7.44513 5.96239 7.44513 9.09453C7.44513 12.2267 9.98423 14.7658 13.1164 14.7658Z" stroke="#515F76" stroke-width="0.986301" stroke-miterlimit="10"/>
<path d="M13.1574 9.01233C13.7471 9.01233 14.2259 9.43562 14.2259 9.95753C14.2259 10.4795 13.7471 10.9027 13.1574 10.9027C12.5677 10.9027 12.0889 10.4795 12.0889 9.95753" stroke="#515F76" stroke-width="0.986301" stroke-miterlimit="10" stroke-linecap="round"/>
<path d="M14.2259 8.06712C14.2259 7.54521 13.7471 7.12192 13.1574 7.12192H13.1451C12.5636 7.12192 12.0889 7.54726 12.0889 8.06712C12.0889 8.58699 12.5697 9.01233 13.1574 9.01233" stroke="#515F76" stroke-width="0.986301" stroke-miterlimit="10" stroke-linecap="round"/>
<path d="M13.1451 6.6452V7.12191V7.13835" stroke="#515F76" stroke-width="0.986301" stroke-miterlimit="10" stroke-linecap="round"/>
<path d="M13.1451 10.9192V11.4123" stroke="#515F76" stroke-width="0.986301" stroke-miterlimit="10" stroke-linecap="round"/>
<path d="M25.3629 7.10959L26.0204 7.76712" stroke="#ED9180" stroke-width="0.657534" stroke-miterlimit="10" stroke-linecap="round"/>
<path d="M26.0204 7.10959L25.3629 7.76712" stroke="#ED9180" stroke-width="0.657534" stroke-miterlimit="10" stroke-linecap="round"/>
<path d="M28.7205 9C28.9474 9 29.1314 8.81601 29.1314 8.58904C29.1314 8.36208 28.9474 8.17809 28.7205 8.17809C28.4935 8.17809 28.3095 8.36208 28.3095 8.58904C28.3095 8.81601 28.4935 9 28.7205 9Z" stroke="#B8B9BA" stroke-width="0.657534" stroke-miterlimit="10" stroke-linecap="round"/>
<path d="M27.1999 11.4945C27.3815 11.4945 27.5287 11.3473 27.5287 11.1658C27.5287 10.9842 27.3815 10.837 27.1999 10.837C27.0183 10.837 26.8712 10.9842 26.8712 11.1658C26.8712 11.3473 27.0183 11.4945 27.1999 11.4945Z" fill="#B8B9BA"/>
<path d="M2.6944 23.2192V24.6575" stroke="#B8B9BA" stroke-width="0.821918" stroke-miterlimit="10" stroke-linecap="round"/>
<path d="M3.31088 24.0411H2.078" stroke="#B8B9BA" stroke-width="0.821918" stroke-miterlimit="10" stroke-linecap="round"/>
<path d="M7.93826 3.58766C8.11984 3.58766 8.26703 3.44047 8.26703 3.2589C8.26703 3.07732 8.11984 2.93013 7.93826 2.93013C7.75669 2.93013 7.6095 3.07732 7.6095 3.2589C7.6095 3.44047 7.75669 3.58766 7.93826 3.58766Z" fill="#B8B9BA"/>
<path d="M6.06431 5.34247L6.54307 5.09178C6.54574 5.0902 6.54879 5.08941 6.55189 5.08949C6.55499 5.08957 6.55799 5.09053 6.56057 5.09225C6.56315 5.09396 6.56519 5.09637 6.56645 5.0992C6.56772 5.10203 6.56816 5.10515 6.56773 5.10822L6.47526 5.63425L6.88622 6.03493L6.3191 6.11712L6.06431 6.63082L5.80951 6.11712L5.27526 6.03904C5.2727 6.03762 5.27055 6.03554 5.26906 6.03301C5.26757 6.03048 5.26678 6.02759 5.26678 6.02466C5.26678 6.02172 5.26757 6.01884 5.26906 6.01631C5.27055 6.01378 5.2727 6.0117 5.27526 6.01027L5.66157 5.63219L5.56499 5.06712L6.06431 5.34247Z" fill="#A8CBEB"/>
<path d="M2.46018 21.4397C2.64175 21.4397 2.78894 21.2925 2.78894 21.111C2.78894 20.9294 2.64175 20.7822 2.46018 20.7822C2.2786 20.7822 2.13141 20.9294 2.13141 21.111C2.13141 21.2925 2.2786 21.4397 2.46018 21.4397Z" fill="#B8B9BA"/>
<path d="M6.32322 25.6418C6.32308 25.5148 6.37193 25.3927 6.45958 25.3008C6.54723 25.209 6.66693 25.1545 6.79377 25.1486L12.4054 24.7254V24.3493C12.4054 24.3183 12.3931 24.2885 12.3711 24.2665C12.3491 24.2445 12.3193 24.2322 12.2883 24.2322H5.63281C5.61599 24.2291 5.59869 24.2298 5.58219 24.2343C5.5657 24.2388 5.55045 24.2471 5.53759 24.2583C5.52473 24.2696 5.51459 24.2837 5.50795 24.2994C5.50131 24.3152 5.49833 24.3322 5.49925 24.3493V26.8623H6.32116V25.6418H6.32322Z" fill="#D2E1EF"/>
<path d="M12.2636 26.8233V24.1849C12.2636 24.1457 12.248 24.1081 12.2203 24.0803C12.1925 24.0526 12.1549 24.037 12.1156 24.037H5.46838C5.42914 24.037 5.39151 24.0526 5.36377 24.0803C5.33602 24.1081 5.32043 24.1457 5.32043 24.1849V26.8212" stroke="#515F76" stroke-width="0.986301" stroke-miterlimit="10" stroke-linecap="round"/>
<path d="M15.0951 25.6418C15.095 25.5148 15.1438 25.3927 15.2314 25.3008C15.3191 25.209 15.4388 25.1545 15.5656 25.1486L21.1876 24.7274V24.3493C21.1876 24.3183 21.1752 24.2885 21.1533 24.2665C21.1313 24.2445 21.1015 24.2322 21.0704 24.2322H14.4067C14.3899 24.2291 14.3726 24.2298 14.3561 24.2343C14.3396 24.2388 14.3244 24.2471 14.3115 24.2583C14.2987 24.2696 14.2885 24.2837 14.2819 24.2994C14.2752 24.3152 14.2723 24.3322 14.2732 24.3493V26.8623H15.0951V25.6418Z" fill="#D2E1EF"/>
<path d="M14.1643 26.8233V24.1849C14.1643 24.1457 14.1799 24.1081 14.2076 24.0803C14.2354 24.0526 14.273 24.037 14.3123 24.037H20.9575C20.9967 24.037 21.0343 24.0526 21.0621 24.0803C21.0898 24.1081 21.1054 24.1457 21.1054 24.1849V26.8212" stroke="#515F76" stroke-width="0.986301" stroke-miterlimit="10" stroke-linecap="round"/>
</g>
<defs>
<clipPath id="clip0_51_1187">
<rect width="30" height="30" fill="white" transform="translate(0.0231934)"/>
</clipPath>
</defs>
</svg>
