<svg width="24" height="26" viewBox="0 0 24 26" fill="none" xmlns="http://www.w3.org/2000/svg">
<g clip-path="url(#clip0_51_990)">
<path d="M20.007 18.9528C20.007 23.6272 16.4506 23.6272 12.0232 23.6272C7.59576 23.6272 4.03931 23.6272 4.03931 18.9528C4.03931 14.2784 7.63205 6.62929 12.0232 6.62929C16.4143 6.62929 20.007 14.2397 20.007 18.9528Z" fill="#DBB471"/>
<path opacity="0.5" d="M20.007 18.9528C20.007 17.3689 19.6078 15.4373 18.882 13.583C19.0272 14.7806 18.7369 16.9053 15.2893 17.7166C10.3901 18.8369 12.9304 20.3049 11.007 20.4981C9.37396 20.6526 5.01912 19.9572 4.14815 17.3303C4.07557 17.9097 4.00299 18.4506 4.00299 18.9914C4.03928 23.6272 7.63202 23.6272 12.0232 23.6272C16.4143 23.6272 20.007 23.6272 20.007 18.9528Z" fill="#89664C"/>
<path d="M14.1643 16.7122C14.0191 15.9395 13.4022 15.7077 12.7489 15.6691V14.5874C12.9304 14.6647 13.1481 14.7806 13.2933 14.8965C13.5836 15.0896 13.8739 14.5874 13.5836 14.3943C13.3296 14.2397 13.0393 14.0852 12.7489 13.9693V12.6945C12.7489 12.3081 12.2046 12.3081 12.2046 12.6945V13.8148C11.9143 13.7761 11.6239 13.7761 11.3336 13.8148C11.2973 13.5444 11.2247 13.2739 11.1522 13.0035C11.0796 12.6172 10.5352 12.7717 10.6441 13.158C10.7167 13.4285 10.753 13.6989 10.8255 13.9693C10.7893 13.9693 10.7893 13.9693 10.753 14.0079C10.0272 14.317 9.55538 15.0896 10.0997 15.8236C10.3538 16.1713 10.6804 16.2872 11.0433 16.3645C11.0796 16.8667 11.0796 17.3689 11.0796 17.8711C10.8255 17.7166 10.6078 17.4848 10.4264 17.2916C10.1723 17.0212 9.80941 17.4462 10.0272 17.7166C10.3538 18.1029 10.7167 18.3733 11.0796 18.5665C11.0796 18.9914 11.1159 19.4164 11.1522 19.8413C11.1884 20.2276 11.7328 20.2276 11.6965 19.8413C11.6602 19.455 11.6239 19.1073 11.6239 18.721C11.8417 18.7596 12.0594 18.7596 12.2772 18.7596C12.3134 19.1459 12.3497 19.5323 12.386 19.9572C12.4223 20.3435 12.9667 20.3435 12.9304 19.9572C12.8941 19.5323 12.8578 19.1073 12.8215 18.6437C13.6199 18.3347 14.3457 17.6779 14.1643 16.7122ZM12.2046 14.3943V15.6691C12.0231 15.6691 11.878 15.7077 11.7328 15.7077H11.5514L11.4425 14.317C11.6965 14.317 11.9505 14.3556 12.2046 14.3943ZM10.8981 15.6305C10.753 15.5918 10.6078 15.4759 10.4626 15.36C10.136 15.0124 10.6078 14.7033 10.8981 14.5488C10.9344 14.9351 10.9707 15.2828 11.007 15.6691C10.9707 15.6691 10.9344 15.6691 10.8981 15.6305ZM12.0957 18.1029C11.9143 18.1415 11.7691 18.1029 11.6239 18.0643C11.5876 17.4848 11.5876 16.9053 11.5876 16.2872C11.8054 16.2872 12.0231 16.2486 12.2409 16.2486C12.2409 16.8667 12.2772 17.4462 12.2772 18.0643C12.2046 18.1029 12.1683 18.1029 12.0957 18.1029ZM13.2933 17.6779C13.1481 17.7938 12.9667 17.8711 12.8215 17.9484C12.7852 17.3689 12.7852 16.828 12.7852 16.2486H12.9667C13.6562 16.4031 13.8376 17.2144 13.2933 17.6779Z" fill="#89664C"/>
<path d="M12.749 22.082H11.9143V23.6272L15.2893 25.5588L22.9103 23.0477V21.6956L20.1159 19.9572L12.749 22.082Z" fill="#699635"/>
<path d="M12.0232 21.1934C12.0232 21.1934 12.8942 22.7001 15.3619 24.0135C15.3619 24.0135 19.2087 23.8204 22.9103 21.1934C22.9103 21.1934 20.7692 20.0731 20.1522 18.6051C20.1522 18.6051 18.7006 20.7685 12.0232 21.1934Z" fill="#83BF4F"/>
<path d="M10.3901 22.0433L11.1885 22.0047L11.2974 23.4341L8.14014 25.5588L0.555465 23.8204L0.446594 22.5455L3.02321 20.6526L10.3901 22.0433Z" fill="#699635"/>
<path d="M11.0071 21.1548C11.0071 21.1548 10.245 22.6614 7.95866 24.0908C7.95866 24.0908 4.22076 24.2067 0.410278 22.0819C0.410278 22.0819 2.44254 20.8457 2.91431 19.3777C2.91431 19.3777 4.51109 21.3093 11.0071 21.1548Z" fill="#83BF4F"/>
<path d="M9.19253 21.5797C9.19253 21.5797 9.08366 21.8888 9.59173 21.9274L8.24898 23.125C8.24898 23.125 7.4506 23.0477 7.26915 23.6272C7.26915 23.6272 4.00302 23.2409 1.89818 22.2365C1.89818 22.2365 2.33366 21.8888 1.78931 21.657C1.78931 21.657 2.40624 21.1934 2.5514 20.7685C2.5514 20.7685 3.13205 20.8457 3.3135 20.3822C3.38608 20.3435 5.5635 21.7343 9.19253 21.5797Z" stroke="#699635" stroke-width="0.9375" stroke-miterlimit="10"/>
<path d="M3.60382 22.1206C3.98463 22.1206 4.29334 21.8957 4.29334 21.6184C4.29334 21.341 3.98463 21.1161 3.60382 21.1161C3.22301 21.1161 2.91431 21.341 2.91431 21.6184C2.91431 21.8957 3.22301 22.1206 3.60382 22.1206Z" fill="#699635"/>
<path d="M7.30543 21.0003C7.30543 21.0003 6.47075 22.1592 4.65623 23.7431L4.76511 24.7862L3.49494 24.4771L3.42236 23.3568C3.42236 23.3568 5.27317 21.5411 5.67236 20.6526C5.63607 20.6526 6.2893 20.8844 7.30543 21.0003Z" fill="#F9F3D9"/>
<path d="M15.6885 20.7298C15.6885 20.7298 16.0151 21.657 18.4828 23.3568V24.4771L19.8982 24.0135V22.8546C19.8982 22.8546 18.1925 21.5797 17.1764 20.3049L15.6885 20.7298Z" fill="#F9F3D9"/>
<path d="M13.6199 19.4936L12.8215 19.455L12.749 21.0389L15.9788 23.2409L23.5635 21.0389L23.5998 19.6482L20.9506 17.6779L13.6199 19.4936Z" fill="#699635"/>
<path d="M12.9667 18.5278C12.9667 18.5278 13.7651 20.1504 16.124 21.6184C16.124 21.6184 19.8982 21.6184 23.6361 19.1459C23.6361 19.1459 21.5675 17.8711 21.0595 16.2872C21.0595 16.2872 19.499 18.4506 12.9667 18.5278Z" fill="#83BF4F"/>
<path d="M14.5998 18.9528C14.5998 18.9528 14.7813 19.2618 14.2006 19.3777L15.7248 20.6526C15.7248 20.6526 16.5958 20.4208 16.8861 20.9616C16.8861 20.9616 20.5151 20.2663 22.1845 19.3391C22.1845 19.3391 21.6401 19.0687 22.1845 18.721C22.1845 18.721 21.5313 18.1415 21.2772 17.7552C21.2772 17.7552 20.6603 17.9484 20.3337 17.4848C20.3337 17.5234 19.0272 18.7596 14.5998 18.9528Z" stroke="#699635" stroke-width="0.9375" stroke-miterlimit="10"/>
<path d="M17.3941 19.9186C17.249 20.1117 16.7772 20.189 16.378 20.0731C15.9788 19.9572 15.7974 19.6868 15.9425 19.4936C16.0877 19.3005 16.5595 19.2232 16.9587 19.3391C17.3579 19.455 17.5393 19.6868 17.3941 19.9186Z" fill="#699635"/>
<path d="M16.6683 18.2188C16.6683 18.2188 17.5393 19.455 19.3901 21.1162L19.3538 22.2751L20.624 21.8888L20.6603 20.6526C20.6603 20.6526 18.7732 18.721 18.3014 17.7938C18.3377 17.7938 17.7208 18.0643 16.6683 18.2188Z" fill="#F9F3D9"/>
<path d="M17.1039 1.60718C17.1039 3.96371 14.2369 7.78824 12.0232 7.78824C9.8095 7.78824 6.94257 4.35003 6.94257 1.9935C6.94257 -0.363032 7.26918 1.9935 9.48289 1.9935C9.8095 1.9935 11.3337 0.834549 12.0232 0.834549C12.495 0.834549 13.8377 1.9935 14.5635 1.9935C16.4869 1.9935 17.1039 -0.169873 17.1039 1.60718Z" fill="#DBB471"/>
<path d="M11.37 5.97255C11.1522 6.12708 10.0998 6.01119 9.77319 6.28161C9.3377 6.62929 9.95464 7.44056 9.51915 7.94277C8.64819 8.86993 7.95867 9.91298 8.17641 10.4925C8.53932 11.4969 9.22883 8.63814 9.84577 9.71982C10.4627 10.8015 10.3538 8.98582 11.2974 9.91298C12.2409 10.8401 11.4425 8.25182 12.3498 9.37214C13.2571 10.4925 13.2933 11.7673 13.9466 11.7673C14.7087 11.7673 13.1482 8.7154 14.1643 9.4494C15.1804 10.1834 16.3054 9.91298 15.2893 8.79266C14.9627 8.44498 14.5272 7.82687 14.0192 7.28603C13.8377 7.09287 13.9829 6.08845 13.8014 5.93392C13.5837 5.74076 13.0393 6.35887 12.8216 6.24297C12.3861 6.01119 12.5313 6.43613 11.878 6.55203C11.4425 6.70655 11.8054 5.6635 11.37 5.97255Z" fill="#89664C"/>
<path d="M7.19657 8.25182C8.6119 6.82245 11.1885 7.63371 12.7127 8.32908C14.2006 9.02445 15.1079 6.82245 14.1643 5.70213C13.62 5.0454 12.749 5.81803 12.4224 6.28161C12.0595 6.74519 11.7692 7.2474 11.37 7.71098C10.7893 8.40635 9.37399 7.82687 9.80948 6.86108C10.2812 5.85666 12.2772 7.01561 12.9304 7.20877C14.2006 7.59508 15.5433 7.74961 16.8135 7.2474C17.249 7.09287 17.0675 6.32024 16.6321 6.5134C15.2167 7.05424 13.8014 6.70656 12.4587 6.24298C11.7692 6.01119 10.6804 5.39308 9.95464 5.74076C7.88609 6.78382 9.80948 9.75845 11.5514 8.59951C11.9506 8.32908 12.2046 7.90414 12.495 7.51782C12.6764 7.28603 13.5837 5.81803 13.8014 6.55203C13.9103 6.93835 13.8014 7.63371 13.4022 7.74961C13.1482 7.8655 12.6401 7.47919 12.3861 7.40192C11.9143 7.20877 11.4425 7.05424 10.9345 6.93835C9.59173 6.62929 7.77722 6.70656 6.7248 7.74961C6.36189 8.05866 6.86996 8.59951 7.19657 8.25182Z" fill="#E8E8E8"/>
<path d="M16.6683 1.02771C16.3054 1.33676 15.6522 1.9935 14.5635 1.9935C13.8377 1.9935 12.4949 0.834549 12.0232 0.834549C11.3336 0.834549 9.80945 1.9935 9.48284 1.9935C8.28526 1.9935 7.63203 1.33676 7.30542 1.06634C7.30542 1.06634 7.70461 2.80476 8.93848 3.69329C9.84574 4.3114 9.73687 3.57739 10.2086 2.88203C10.6804 2.18666 11.007 1.83897 11.8417 3.57739C12.2772 4.54319 13.1119 0.950444 13.7651 2.10939C14.9627 4.23413 15.3982 3.07518 16.6683 1.02771Z" fill="#89664C"/>
<path d="M19.4264 21.0775L19.3901 22.2365L20.6602 21.8502L20.6965 20.614C20.6965 20.6526 19.9344 20.9616 19.4264 21.0775Z" fill="#DBB471"/>
<path d="M18.4828 23.3954V24.5157L19.8982 24.0522V22.8932C19.8619 22.8546 19.499 23.0864 18.4828 23.3954Z" fill="#DBB471"/>
<path d="M4.65623 23.7045L4.7651 24.7862L3.49494 24.4771L3.42236 23.3568C3.38607 23.3568 3.89413 23.55 4.65623 23.7045Z" fill="#DBB471"/>
</g>
<defs>
<clipPath id="clip0_51_990">
<rect width="23.2258" height="24.7242" fill="white" transform="translate(0.410278 0.834549)"/>
</clipPath>
</defs>
</svg>
