<svg width="31" height="30" viewBox="0 0 31 30" fill="none" xmlns="http://www.w3.org/2000/svg">
<g clip-path="url(#clip0_51_1143)">
<path d="M2.05164 7.72212L6.91831 12.5888V10.7033C6.91831 10.2443 7.28846 9.86918 7.75245 9.86918H20.1068V5.57505H7.74756C7.28854 5.57505 6.91343 5.20491 6.91343 4.74092V2.85544L2.05164 7.72212Z" fill="#FFC10D"/>
<path d="M27.9942 22.2729L23.1275 17.4062V19.2917C23.1275 19.7507 22.7573 20.1258 22.2934 20.1258H9.94391V24.4151H22.3032C22.7622 24.4151 23.1373 24.7852 23.1373 25.2492V27.1397L27.9942 22.2729Z" fill="#56ACE0"/>
<path d="M29.7661 21.6855L22.8856 14.8099C22.3377 14.2966 21.4345 14.6371 21.4641 15.4023V18.4723H9.10977C8.65075 18.4723 8.27563 18.8425 8.27563 19.3065V25.264C8.27563 25.723 8.64578 26.0981 9.10977 26.0981H21.4691V29.1682C21.4 29.8444 22.3328 30.3034 22.8906 29.7605L29.7711 22.88C30.0919 22.5395 30.0919 22.0113 29.7661 21.6855ZM23.1275 27.1396V25.2492C23.1275 24.7902 22.7573 24.4151 22.2933 24.4151H9.9439V20.1308H22.3032C22.7622 20.1308 23.1373 19.7607 23.1373 19.2967V17.4062L28.004 22.2729L23.1275 27.1396Z" fill="#194F82"/>
<path d="M4.94394 18.4674C4.48491 18.4674 4.1098 18.8376 4.1098 19.3016V25.2591C4.1098 25.7181 4.47995 26.0932 4.94394 26.0932C5.40792 26.0932 5.77807 25.7231 5.77807 25.2591V19.2966C5.77814 18.8376 5.40792 18.4674 4.94394 18.4674Z" fill="#194F82"/>
<path d="M8.58164 14.5977V11.5277H20.9409C21.4 11.5277 21.7751 11.1575 21.7751 10.6935V4.73595C21.7751 4.27693 21.4048 3.90182 20.9409 3.90182H8.58164V0.831748C8.65074 0.155509 7.71789 -0.303512 7.16014 0.239419L0.279559 7.13474C-0.04623 7.46053 -0.04623 7.98369 0.279559 8.31444L7.16007 15.1949C7.70796 15.6984 8.61127 15.3578 8.58164 14.5977ZM7.74751 9.86428C7.28849 9.86428 6.91338 10.2344 6.91338 10.6984V12.5889L2.04662 7.72211L6.9133 2.85543V4.74587C6.9133 5.2049 7.28345 5.58001 7.74743 5.58001H20.1067V9.87413H7.74751V9.86428Z" fill="#194F82"/>
<path d="M25.1018 11.5277C25.5609 11.5277 25.936 11.1575 25.936 10.6935V4.73596C25.936 4.27694 25.5658 3.90182 25.1018 3.90182C24.6428 3.90182 24.2677 4.27197 24.2677 4.73596V10.6935C24.2676 11.1574 24.6379 11.5277 25.1018 11.5277Z" fill="#194F82"/>
</g>
<defs>
<clipPath id="clip0_51_1143">
<rect width="30" height="30" fill="white" transform="translate(0.0231934)"/>
</clipPath>
</defs>
</svg>
